<?xml version="1.0" encoding="utf-8"?>
<svg version="1.1" xmlns:xlink="http://www.w3.org/1999/xlink" width="38px" height="29px" xmlns="http://www.w3.org/2000/svg">
  <g transform="matrix(1 0 0 1 -87 -383 )">
    <path d="M 18.3134765625 20.9475911458333  C 18.7711588541667 20.4126519097222  19 19.7424045138889  19 18.9368489583333  C 19 18.1312934027778  18.9443359375 17.3918185763889  18.8330078125 16.7184244791667  C 18.7216796875 16.0450303819444  18.5392252604167 15.3968098958333  18.28564453125 14.7737630208333  C 18.0320638020833 14.1507161458333  17.6578776041667 13.6598307291667  17.1630859375 13.3011067708333  C 16.6682942708333 12.9423828125  16.068359375 12.7630208333333  15.36328125 12.7630208333333  C 15.2890625 12.8133680555556  15.103515625 12.9266493055556  14.806640625 13.1028645833333  C 14.509765625 13.2790798611111  14.27783203125 13.4143880208333  14.11083984375 13.5087890625  C 13.94384765625 13.6031901041667  13.7242838541667 13.7133246527778  13.4521484375 13.8391927083333  C 13.1800130208333 13.9650607638889  12.9140625 14.0563151041667  12.654296875 14.1129557291667  C 12.39453125 14.1695963541667  12.134765625 14.1979166666667  11.875 14.1979166666667  C 11.615234375 14.1979166666667  11.35546875 14.1695963541667  11.095703125 14.1129557291667  C 10.8359375 14.0563151041667  10.5699869791667 13.9650607638889  10.2978515625 13.8391927083333  C 10.0257161458333 13.7133246527778  9.80615234375 13.6031901041667  9.63916015625 13.5087890625  C 9.47216796875 13.4143880208333  9.240234375 13.2790798611111  8.943359375 13.1028645833333  C 8.646484375 12.9266493055556  8.4609375 12.8133680555556  8.38671875 12.7630208333333  C 7.681640625 12.7630208333333  7.08170572916667 12.9423828125  6.5869140625 13.3011067708333  C 6.09212239583333 13.6598307291667  5.71793619791667 14.1507161458333  5.46435546875 14.7737630208333  C 5.21077473958333 15.3968098958333  5.0283203125 16.0450303819444  4.9169921875 16.7184244791667  C 4.8056640625 17.3918185763889  4.75 18.1312934027778  4.75 18.9368489583333  C 4.75 19.7424045138889  4.97884114583333 20.4126519097222  5.4365234375 20.9475911458333  C 5.89420572916667 21.4825303819444  6.45703125 21.75  7.125 21.75  L 16.625 21.75  C 17.29296875 21.75  17.8557942708333 21.4825303819444  18.3134765625 20.9475911458333  Z M 14.85302734375 12.1494140625  C 15.6756184895833 11.3123914930556  16.0869140625 10.3023003472222  16.0869140625 9.119140625  C 16.0869140625 7.93598090277778  15.6756184895833 6.92588975694444  14.85302734375 6.0888671875  C 14.0304361979167 5.25184461805555  13.0377604166667 4.83333333333333  11.875 4.83333333333333  C 10.7122395833333 4.83333333333333  9.71956380208333 5.25184461805555  8.89697265625 6.0888671875  C 8.07438151041667 6.92588975694444  7.6630859375 7.93598090277778  7.6630859375 9.119140625  C 7.6630859375 10.3023003472222  8.07438151041667 11.3123914930556  8.89697265625 12.1494140625  C 9.71956380208333 12.9864366319444  10.7122395833333 13.4049479166667  11.875 13.4049479166667  C 13.0377604166667 13.4049479166667  14.0304361979167 12.9864366319444  14.85302734375 12.1494140625  Z M 33.0830078125 19.1634114583333  C 33.1943359375 19.0501302083333  33.25 18.9053819444444  33.25 18.7291666666667  L 33.25 17.5208333333333  C 33.25 17.3446180555556  33.1943359375 17.1998697916667  33.0830078125 17.0865885416667  C 32.9716796875 16.9733072916667  32.8294270833333 16.9166666666667  32.65625 17  L 21.96875 17  C 21.7955729166667 16.9166666666667  21.6533203125 16.9733072916667  21.5419921875 17.0865885416667  C 21.4306640625 17.1998697916667  21.375 17.3446180555556  21.375 17.5208333333333  L 21.375 18.7291666666667  C 21.375 18.9053819444444  21.4306640625 19.0501302083333  21.5419921875 19.1634114583333  C 21.6533203125 19.2766927083333  21.7955729166667 19.3333333333333  21.96875 19  L 32.65625 19  C 32.8294270833333 19.3333333333333  32.9716796875 19.2766927083333  33.0830078125 19.1634114583333  Z M 33.05517578125 14.3017578125  C 33.18505859375 14.1695963541667  33.25 14.0091145833333  33.25 13.8203125  L 33.25 12.7630208333333  C 33.25 12.57421875  33.18505859375 12.4137369791667  33.05517578125 12.2815755208333  C 32.92529296875 12.1494140625  32.767578125 12.0833333333333  32.58203125 12  L 22.04296875 12  C 21.857421875 12.0833333333333  21.69970703125 12.1494140625  21.56982421875 12.2815755208333  C 21.43994140625 12.4137369791667  21.375 12.57421875  21.375 12.7630208333333  L 21.375 13.8203125  C 21.375 14.0091145833333  21.43994140625 14.1695963541667  21.56982421875 14.3017578125  C 21.69970703125 14.4339192708333  21.857421875 14.5  22.04296875 14  L 32.58203125 14  C 32.767578125 14.5  32.92529296875 14.4339192708333  33.05517578125 14.3017578125  Z M 33.0830078125 9.49674479166667  C 33.1943359375 9.38346354166667  33.25 9.23871527777778  33.25 9.0625  L 33.25 7.85416666666667  C 33.25 7.67795138888888  33.1943359375 7.533203125  33.0830078125 7.419921875  C 32.9716796875 7.306640625  32.8294270833333 7.25  32.65625 7.25  L 21.96875 7.25  C 21.7955729166667 7.25  21.6533203125 7.306640625  21.5419921875 7.419921875  C 21.4306640625 7.533203125  21.375 7.67795138888888  21.375 7.85416666666667  L 21.375 9.0625  C 21.375 9.23871527777778  21.4306640625 9.38346354166667  21.5419921875 9.49674479166667  C 21.6533203125 9.61002604166667  21.7955729166667 9.66666666666667  21.96875 10  L 32.65625 10  C 32.8294270833333 9.66666666666667  32.9716796875 9.61002604166667  33.0830078125 9.49674479166667  Z M 37.1279296875 0.887369791666668  C 37.7093098958333 1.47894965277778  38 2.19010416666667  38 3.02083333333333  L 38 25.9791666666667  C 38 26.8098958333333  37.7093098958333 27.5210503472222  37.1279296875 28.1126302083333  C 36.5465494791667 28.7042100694444  35.84765625 29  35.03125 29  L 28.5 29  L 28.5 27.1875  C 28.5 27.0112847222222  28.4443359375 26.8665364583333  28.3330078125 26.7532552083333  C 28.2216796875 26.6399739583333  28.0794270833333 26.5833333333333  27.90625 26.5833333333333  L 26.71875 26.5833333333333  C 26.5455729166667 26.5833333333333  26.4033203125 26.6399739583333  26.2919921875 26.7532552083333  C 26.1806640625 26.8665364583333  26.125 27.0112847222222  26.125 27.1875  L 26.125 29  L 11.875 29  L 11.875 27.1875  C 11.875 27.0112847222222  11.8193359375 26.8665364583333  11.7080078125 26.7532552083333  C 11.5966796875 26.6399739583333  11.4544270833333 26.5833333333333  11.28125 26.5833333333333  L 10.09375 26.5833333333333  C 9.92057291666667 26.5833333333333  9.7783203125 26.6399739583333  9.6669921875 26.7532552083333  C 9.5556640625 26.8665364583333  9.5 27.0112847222222  9.5 27.1875  L 9.5 29  L 2.96875 29  C 2.15234375 29  1.45345052083333 28.7042100694444  0.8720703125 28.1126302083333  C 0.290690104166667 27.5210503472222  0 26.8098958333333  0 25.9791666666667  L 0 3.02083333333333  C 0 2.19010416666667  0.290690104166667 1.47894965277778  0.8720703125 0.887369791666668  C 1.45345052083333 0.295789930555553  2.15234375 0  2.96875 0  L 35.03125 0  C 35.84765625 0  36.5465494791667 0.295789930555553  37.1279296875 0.887369791666668  Z " fill-rule="nonzero" fill="#aaaaaa" stroke="none" transform="matrix(1 0 0 1 87 383 )" />
  </g>
</svg>