<?xml version="1.0" encoding="utf-8"?>
<svg version="1.1" xmlns:xlink="http://www.w3.org/1999/xlink" width="39px" height="29px" xmlns="http://www.w3.org/2000/svg">
  <g transform="matrix(1 0 0 1 -210 -383 )">
    <path d="M 38.4499733901011 16.0859375  C 38.8166577967004 16.2644412878788  39 16.5596590909091  39 16.9715909090909  C 39 17.3972537878788  38.785524215008 17.8503787878788  38.3565726450239 18.3309659090909  L 31.3826503459287 26.4872159090909  C 30.7876530069186 27.1875  29.9539648749335 27.7813683712121  28.8815859499734 28.2688210227273  C 27.8092070250133 28.7562736742424  26.8163916977115 29  25.9031399680681 29  L 3.32091538052155 29  C 2.850452368281 29  2.4318786588611 28.9107481060606  2.06519425226184 28.7322443181818  C 1.69850984566259 28.553740530303  1.51516764236296 28.2585227272727  1.51516764236296 27.8465909090909  C 1.51516764236296 27.420928030303  1.72964342735498 26.967803030303  2.15859499733901 26.4872159090909  L 9.13251729643427 18.3309659090909  C 9.72751463544439 17.6306818181818  10.5612027674295 17.0368134469697  11.6335816923896 16.5493607954545  C 12.7059606173497 16.0619081439394  13.6987759446514 15.8181818181818  14.6120276742948 15.8181818181818  L 37.1942522618414 15.8181818181818  C 37.664715274082 15.8181818181818  38.0832889835019 15.9074337121212  38.4499733901011 16.0859375  Z M 30.5109100585418 6.63210227272727  C 31.4241617881852 7.53835227272727  31.8807876530069 8.62310606060606  31.8807876530069 9.88636363636364  L 31.8807876530069 13.1818181818182  L 14.6120276742948 13.1818181818182  C 13.3113358169239 13.1818181818182  11.9483767961682 13.5079308712121  10.5231506120277 14.16015625  C 9.09792442788717 14.8123816287879  7.96327833954231 15.6328125  7.11921234699308 16.6214488636364  L 0.124534326769558 24.7776988636364  L 0.0207557211282597 24.9012784090909  C 0.0207557211282597 24.8463541666667  0.0172964342735498 24.7605350378788  0.0103778605641299 24.6438210227273  C 0.00345928685470995 24.5271070075758  0 24.4412878787879  0 24.3863636363636  L 0 4.61363636363636  C 0 3.35037878787878  0.456625864821714 2.265625  1.36987759446514 1.359375  C 2.28312932410857 0.453125  3.37626397019691 0  4.64928153273018 0  L 11.2911122937733 0  C 12.5641298563065 0  13.6572645023949 0.453125  14.5705162320383 1.359375  C 15.4837679616817 2.265625  15.9403938265035 3.35037878787878  15.9403938265035 4.61363636363636  L 15.9403938265035 5.27272727272727  L 27.2315061202767 5.27272727272727  C 28.50452368281 5.27272727272727  29.5976583288983 5.72585227272727  30.5109100585418 6.63210227272727  Z " fill-rule="nonzero" fill="#aaaaaa" stroke="none" transform="matrix(1 0 0 1 210 383 )" />
  </g>
</svg>