<?xml version="1.0" encoding="utf-8"?>
<svg version="1.1" xmlns:xlink="http://www.w3.org/1999/xlink" width="12px" height="12px" viewBox="712 274  12 12" xmlns="http://www.w3.org/2000/svg">
  <path d="M 718 274  C 721.36 274  724 276.64  724 280  C 724 283.36  721.36 286  718 286  C 714.64 286  712 283.36  712 280  C 712 276.64  714.64 274  718 274  Z " fill-rule="nonzero" fill="#ffffff" stroke="none" />
  <path d="M 718 274.5  C 721.08 274.5  723.5 276.92  723.5 280  C 723.5 283.08  721.08 285.5  718 285.5  C 714.92 285.5  712.5 283.08  712.5 280  C 712.5 276.92  714.92 274.5  718 274.5  Z " stroke-width="1" stroke="#797979" fill="none" />
  <path d="M 718 283  C 716.32 283  715 281.68  715 280  C 715 278.32  716.32 277  718 277  C 719.68 277  721 278.32  721 280  C 721 281.68  719.68 283  718 283  " fill-rule="nonzero" fill="#797979" stroke="none" />
</svg>