<?xml version="1.0" encoding="utf-8"?>
<svg version="1.1" xmlns:xlink="http://www.w3.org/1999/xlink" width="18px" height="18px" preserveAspectRatio="xMinYMid meet" viewBox="90 346  18 16" xmlns="http://www.w3.org/2000/svg">
  <path d="M 99 171.5  L 80 171.5  A 5 5 0 0 0 75.5 176.5 L 75.5 349  A 5 5 0 0 0 80.5 354.5 L 99 354.5  " stroke-width="1" stroke-dasharray="3,1" stroke="#666666" fill="none" />
  <path d="M 93.9464466094067 166.853553390593  L 98.5928932188134 171.5  L 93.9464466094067 176.146446609407  L 94.6535533905933 176.853553390593  L 99.6535533905933 171.853553390593  L 100.007106781187 171.5  L 99.6535533905933 171.146446609407  L 94.6535533905933 166.146446609407  L 93.9464466094067 166.853553390593  Z M 93.9464466094067 349.853553390593  L 98.5928932188134 354.5  L 93.9464466094067 359.146446609407  L 94.6535533905933 359.853553390593  L 99.6535533905933 354.853553390593  L 100.007106781187 354.5  L 99.6535533905933 354.146446609407  L 94.6535533905933 349.146446609407  L 93.9464466094067 349.853553390593  Z " fill-rule="nonzero" fill="#666666" stroke="none" />
</svg>