<?xml version="1.0" encoding="utf-8"?>
<svg version="1.1" xmlns:xlink="http://www.w3.org/1999/xlink" width="300px" height="221px" xmlns="http://www.w3.org/2000/svg">
  <g transform="matrix(1 0 0 1 -95 -291 )">
    <path d="M 95 291  L 395 291  L 395 512  L 95 512  L 95 291  " fill-rule="nonzero" fill="#cccccc" stroke="none" />
    <path d="M 110 306  L 380 306  L 380 497  L 110 497  L 110 306  " fill-rule="nonzero" fill="#ffffff" stroke="none" />
    <path d="M 267.575 357.3  C 258.293 357.3  251 350.007  251 340.725  C 251 331.443  258.293 324.15  267.575 324.15  C 276.857 324.15  284.15 331.443  284.15 340.725  C 284.15 350.007  276.857 357.3  267.575 357.3  " fill-rule="nonzero" fill="#cccccc" stroke="none" />
    <path d="M 116 492  L 116 393  L 180.75 348  L 271.4 412.44  L 323.2 375  L 375 412.44  L 375 492  L 116 492  " fill-rule="nonzero" fill="#169bd5" stroke="none" />
  </g>
</svg>